# Blender v2.81 (sub 16) OBJ File: ''
# www.blender.org
o Skybox
v 0.000000 1.000000 0.000000
v 0.000000 -1.000000 0.000000
v 1.000000 0.000000 0.000000
v -1.000000 0.000000 0.000000
v 0.000000 0.000000 1.000000
v 0.000000 0.000000 -1.000000
vt 0.000000 0.000000
vt 0.000000 0.000000
vt 0.000000 0.000000
vt 0.000000 0.000000
vt 0.000000 0.000000
vt 0.000000 0.000000
vn 0.5774 0.5774 0.5774
vn -0.5774 0.5774 0.5774
vn -0.5774 0.5774 -0.5774
vn 0.5774 0.5774 -0.5774
vn 0.5774 -0.5774 0.5774
vn 0.5774 -0.5774 -0.5774
vn -0.5774 -0.5774 0.5774
vn -0.5774 -0.5774 -0.5774
f 3/1/1 1/2/1 5/3/1
f 1/2/2 4/4/2 5/3/2
f 4/4/3 1/2/3 6/5/3
f 6/5/4 1/2/4 3/1/4
f 3/1/5 5/3/5 2/6/5
f 2/6/6 6/5/6 3/1/6
f 4/4/7 2/6/7 5/3/7
f 6/5/8 2/6/8 4/4/8
